<?xml version="1.0" encoding="UTF-8"?>
<svg width="800px" height="600px" viewBox="0 0 800 600" version="1.1" xmlns="http://www.w3.org/2000/svg" xmlns:xlink="http://www.w3.org/1999/xlink">
    <title>Hero Image</title>
    <defs>
        <linearGradient x1="0%" y1="0%" x2="100%" y2="100%" id="linearGradient-1">
            <stop stop-color="#6366F1" offset="0%"></stop>
            <stop stop-color="#8B5CF6" offset="100%"></stop>
        </linearGradient>
        <linearGradient x1="0%" y1="0%" x2="100%" y2="100%" id="linearGradient-2">
            <stop stop-color="#10B981" offset="0%"></stop>
            <stop stop-color="#3B82F6" offset="100%"></stop>
        </linearGradient>
    </defs>
    <g id="Hero-Image" stroke="none" stroke-width="1" fill="none" fill-rule="evenodd">
        <!-- Background Elements -->
        <circle id="Circle1" fill="url(#linearGradient-1)" opacity="0.2" cx="650" cy="150" r="100"></circle>
        <circle id="Circle2" fill="url(#linearGradient-2)" opacity="0.15" cx="200" cy="450" r="120"></circle>
        
        <!-- Main AI Brain/Network Visualization -->
        <g id="AI-Network" transform="translate(250, 150)">
            <!-- Central Node -->
            <circle id="CentralNode" fill="url(#linearGradient-1)" cx="150" cy="150" r="40"></circle>
            
            <!-- Connection Lines -->
            <path d="M150,110 L150,50" id="Line1" stroke="#6366F1" stroke-width="3" opacity="0.7"></path>
            <path d="M150,190 L150,250" id="Line2" stroke="#6366F1" stroke-width="3" opacity="0.7"></path>
            <path d="M110,150 L50,150" id="Line3" stroke="#6366F1" stroke-width="3" opacity="0.7"></path>
            <path d="M190,150 L250,150" id="Line4" stroke="#6366F1" stroke-width="3" opacity="0.7"></path>
            <path d="M120,120 L70,70" id="Line5" stroke="#6366F1" stroke-width="3" opacity="0.7"></path>
            <path d="M180,120 L230,70" id="Line6" stroke="#6366F1" stroke-width="3" opacity="0.7"></path>
            <path d="M120,180 L70,230" id="Line7" stroke="#6366F1" stroke-width="3" opacity="0.7"></path>
            <path d="M180,180 L230,230" id="Line8" stroke="#6366F1" stroke-width="3" opacity="0.7"></path>
            
            <!-- Outer Nodes -->
            <circle id="Node1" fill="#10B981" cx="150" cy="50" r="15"></circle>
            <circle id="Node2" fill="#10B981" cx="150" cy="250" r="15"></circle>
            <circle id="Node3" fill="#10B981" cx="50" cy="150" r="15"></circle>
            <circle id="Node4" fill="#10B981" cx="250" cy="150" r="15"></circle>
            <circle id="Node5" fill="#10B981" cx="70" cy="70" r="15"></circle>
            <circle id="Node6" fill="#10B981" cx="230" cy="70" r="15"></circle>
            <circle id="Node7" fill="#10B981" cx="70" cy="230" r="15"></circle>
            <circle id="Node8" fill="#10B981" cx="230" cy="230" r="15"></circle>
            
            <!-- Pulse Rings -->
            <circle id="Pulse1" stroke="#6366F1" stroke-width="2" opacity="0.3" cx="150" cy="150" r="60"></circle>
            <circle id="Pulse2" stroke="#6366F1" stroke-width="2" opacity="0.2" cx="150" cy="150" r="80"></circle>
            <circle id="Pulse3" stroke="#6366F1" stroke-width="2" opacity="0.1" cx="150" cy="150" r="100"></circle>
        </g>
        
        <!-- Chat Bubbles for Conversation AI -->
        <g id="Chat-Bubbles" transform="translate(500, 300)">
            <rect id="Bubble1" fill="#6366F1" x="0" y="0" width="120" height="40" rx="20"></rect>
            <rect id="Bubble2" fill="#10B981" x="40" y="50" width="150" height="40" rx="20"></rect>
            <rect id="Bubble3" fill="#6366F1" x="0" y="100" width="100" height="40" rx="20"></rect>
        </g>
        
        <!-- Abstract Human Silhouette -->
        <g id="Human-Silhouette" transform="translate(100, 250)">
            <circle id="Head" fill="#111827" opacity="0.8" cx="50" cy="50" r="30"></circle>
            <path d="M50,80 L50,180 M20,100 L80,100 M30,200 L50,180 M70,200 L50,180" id="Body" stroke="#111827" stroke-width="8" opacity="0.8" stroke-linecap="round"></path>
        </g>
    </g>
</svg>
